{"glyphs":{":":{"x_min":0,"x_max":312,"ha":312,"o":"m 223 417 q 223 389 203 370 q 184 350 156 350 q 129 350 109 370 q 89 389 89 417 q 89 444 109 464 q 128 483 156 483 q 184 483 204 464 q 223 444 223 417 z m 223 56 q 223 29 203 10 q 184 -10 156 -10 q 129 -10 109 10 q 89 29 89 56 q 89 83 109 103 q 129 123 156 123 q 184 123 203 103 q 223 83 223 56 z"},"$":{"x_min":0,"x_max":610,"ha":610,"o":"m 497 283 q 517 264 528 239 q 539 213 539 178 q 539 102 480 50 q 421 -2 333 -8 l 333 -146 l 292 -146 l 292 -9 q 196 -7 136 37 q 76 81 76 146 q 76 175 88 191 q 101 206 124 206 q 150 206 165 193 q 179 180 179 163 q 179 149 170 123 q 161 96 158 86 q 172 61 207 45 q 242 30 292 29 l 292 276 q 271 284 255 290 q 239 296 213 307 q 157 330 125 367 q 94 404 94 464 q 94 534 152 583 q 211 631 292 632 l 292 744 l 333 744 l 333 632 q 381 631 418 618 q 455 605 479 585 q 502 566 514 542 q 526 519 526 497 q 526 475 516 460 q 505 444 482 444 q 458 444 442 457 q 426 469 426 484 q 426 502 430 520 q 434 538 437 551 q 436 554 427 562 q 419 569 408 576 q 396 583 375 588 q 355 593 333 593 l 333 367 q 352 360 365 355 q 377 350 396 342 q 427 331 452 317 q 478 303 497 283 z m 292 378 l 292 593 q 245 593 213 566 q 181 540 181 500 q 181 458 201 433 q 221 407 261 391 q 267 388 276 385 q 285 381 292 378 z m 447 139 q 447 179 426 208 q 405 238 355 257 q 349 260 344 262 q 338 264 333 266 l 333 30 q 390 33 418 62 q 447 91 447 139 z"},"?":{"x_min":0,"x_max":479,"ha":479,"o":"m 376 649 q 403 621 416 585 q 429 550 429 508 q 429 418 372 361 q 314 304 213 292 l 213 184 l 168 184 l 168 369 q 199 372 229 379 q 260 387 284 404 q 309 422 323 448 q 336 473 336 519 q 336 592 305 631 q 274 670 215 670 q 192 670 176 664 q 159 657 151 651 q 153 640 157 618 q 162 596 162 584 q 162 566 146 551 q 130 536 101 536 q 74 536 63 554 q 52 572 52 596 q 52 616 62 635 q 73 653 96 671 q 116 687 149 698 q 183 709 219 709 q 271 709 311 693 q 351 676 376 649 z m 259 56 q 259 29 240 10 q 220 -10 192 -10 q 165 -10 145 10 q 125 29 125 56 q 125 83 145 103 q 165 123 192 123 q 220 123 240 103 q 259 83 259 56 z"},"<":{"x_min":0,"x_max":643,"ha":643,"o":"m 546 11 l 94 246 l 94 301 l 546 536 l 546 469 l 170 273 l 546 78 z"},"'":{"x_min":0,"x_max":215,"ha":215,"o":"m 163 692 q 163 672 150 617 q 137 561 122 472 l 92 472 q 79 555 66 614 q 53 673 53 692 q 53 714 66 730 q 80 747 108 747 q 134 747 148 730 q 163 714 163 692 z"},"=":{"x_min":0,"x_max":643,"ha":643,"o":"m 568 333 l 75 333 l 75 395 l 568 395 z m 568 152 l 75 152 l 75 213 l 568 213 z"},"a":{"x_min":0,"x_max":504,"ha":504,"o":"m 491 9 q 468 0 451 -5 q 434 -10 412 -10 q 374 -10 351 8 q 328 26 322 60 l 319 60 q 287 25 251 6 q 214 -12 163 -12 q 109 -12 74 21 q 39 54 39 108 q 39 136 47 158 q 55 180 70 197 q 83 212 103 223 q 123 235 140 242 q 162 250 229 272 q 296 295 320 308 l 320 356 q 320 362 317 380 q 314 398 306 415 q 296 433 278 446 q 260 459 228 459 q 205 459 186 452 q 167 444 159 436 q 159 426 163 407 q 168 388 168 372 q 168 355 153 341 q 137 327 110 327 q 85 327 74 344 q 62 361 62 383 q 62 405 78 426 q 94 446 120 462 q 142 476 173 486 q 204 495 234 495 q 275 495 305 490 q 336 484 361 465 q 386 447 399 416 q 412 385 412 336 q 412 267 410 213 q 409 159 409 95 q 409 76 415 64 q 422 53 436 45 q 443 41 459 41 q 475 40 491 40 z m 321 267 q 279 254 248 243 q 217 231 190 213 q 166 197 151 174 q 137 151 137 120 q 137 80 158 61 q 180 42 212 42 q 247 42 273 58 q 300 75 318 98 z"},"L":{"x_min":0,"x_max":604,"ha":604,"o":"m 604 206 l 589 0 l 48 0 l 48 35 q 60 36 82 38 q 104 41 113 44 q 127 51 134 63 q 141 75 141 94 l 141 590 q 141 607 135 620 q 129 632 113 640 q 102 646 81 652 q 61 657 48 658 l 48 693 l 340 693 l 340 658 q 327 658 305 653 q 283 649 273 646 q 257 640 251 625 q 245 611 245 595 l 245 130 q 245 98 248 80 q 251 62 263 52 q 274 43 296 41 q 318 38 358 38 q 376 38 396 39 q 416 40 433 43 q 450 46 465 51 q 479 56 486 64 q 506 86 532 132 q 559 178 569 206 z"},"3":{"x_min":0,"x_max":552,"ha":552,"o":"m 238 -178 q 192 -178 154 -167 q 116 -155 88 -136 q 61 -116 46 -91 q 31 -65 31 -39 q 31 -15 43 5 q 55 24 81 24 q 110 24 125 10 q 141 -5 141 -23 q 141 -39 135 -63 q 130 -87 127 -97 q 131 -102 140 -109 q 149 -116 162 -122 q 178 -129 195 -134 q 212 -138 243 -138 q 272 -138 300 -128 q 327 -119 347 -97 q 369 -75 381 -45 q 393 -15 393 34 q 393 61 387 86 q 381 112 366 131 q 351 150 325 161 q 299 171 259 171 l 195 171 l 195 228 l 237 228 q 305 228 334 265 q 364 302 364 376 q 364 438 335 469 q 307 500 254 500 q 229 500 212 493 q 196 487 186 481 q 173 475 166 466 q 158 458 154 454 q 157 438 162 416 q 167 393 167 373 q 167 354 152 340 q 136 326 106 326 q 81 326 69 344 q 57 363 57 387 q 57 413 71 439 q 85 465 113 488 q 141 511 181 525 q 221 540 273 540 q 333 540 372 522 q 412 504 434 479 q 456 454 464 426 q 473 399 473 379 q 473 355 466 330 q 459 306 443 285 q 426 262 398 243 q 370 224 328 212 l 328 205 q 355 202 386 192 q 417 183 442 164 q 468 144 484 112 q 501 81 501 32 q 501 -62 426 -120 q 351 -178 238 -178 z"},";":{"x_min":0,"x_max":312,"ha":312,"o":"m 223 417 q 223 389 203 370 q 184 350 156 350 q 129 350 109 370 q 89 389 89 417 q 89 444 109 464 q 128 483 156 483 q 184 483 204 464 q 223 444 223 417 z m 231 17 q 231 -18 216 -49 q 200 -80 179 -103 q 158 -126 135 -145 q 111 -163 92 -173 l 69 -140 q 93 -125 111 -111 q 129 -96 142 -82 q 156 -64 167 -44 q 177 -24 180 1 l 155 1 q 122 1 104 18 q 85 35 85 64 q 85 84 102 104 q 119 123 147 123 q 189 123 210 95 q 231 67 231 17 z"},"J":{"x_min":0,"x_max":518,"ha":518,"o":"m 491 658 q 478 658 457 655 q 437 651 423 646 q 406 641 400 627 q 395 613 395 597 l 395 187 q 395 154 382 118 q 369 82 344 54 q 315 21 275 2 q 235 -17 184 -17 q 104 -17 55 28 q 5 73 5 148 q 5 182 22 207 q 40 233 72 233 q 102 233 119 217 q 137 200 137 173 q 137 158 131 142 q 125 126 117 114 q 109 103 100 88 q 91 73 87 61 q 97 44 119 32 q 141 20 177 20 q 213 20 236 36 q 258 53 270 80 q 280 105 285 143 q 290 180 290 226 l 290 592 q 290 609 284 621 q 278 632 261 641 q 246 649 223 653 q 200 657 186 658 l 186 693 l 491 693 z"},"V":{"x_min":0,"x_max":667,"ha":667,"o":"m 687 658 q 674 658 656 653 q 638 647 626 640 q 610 630 600 614 q 590 598 580 576 q 547 498 482 334 q 417 169 347 -9 l 307 -9 q 236 180 171 355 q 105 531 82 592 q 76 607 66 619 q 57 630 41 641 q 27 649 11 653 q -5 657 -19 658 l -19 693 l 268 693 l 268 658 q 231 656 206 651 q 181 646 181 632 q 181 626 183 619 q 185 612 187 607 q 205 560 245 451 q 286 343 360 144 q 397 234 446 357 q 494 480 511 526 q 527 570 530 587 q 532 604 532 615 q 532 626 522 634 q 512 642 496 647 q 479 652 463 654 q 446 657 429 658 l 429 693 l 687 693 z"},"\"":{"x_min":0,"x_max":412,"ha":412,"o":"m 354 692 q 354 672 341 617 q 329 561 313 472 l 283 472 q 271 544 258 610 q 244 675 244 692 q 244 714 257 730 q 271 747 299 747 q 326 747 340 730 q 354 714 354 692 z m 167 692 q 167 672 155 617 q 142 561 126 472 l 97 472 q 83 555 71 614 q 58 673 58 692 q 58 714 71 730 q 85 747 113 747 q 139 747 153 730 q 167 714 167 692 z"},"7":{"x_min":0,"x_max":502,"ha":502,"o":"m 502 492 l 154 -178 l 93 -178 l 421 442 l 229 442 q 187 442 163 441 q 139 440 119 432 q 104 425 92 399 q 80 373 73 333 l 43 333 l 43 524 l 502 524 z"},"S":{"x_min":0,"x_max":561,"ha":561,"o":"m 479 318 q 501 293 511 264 q 522 235 522 197 q 522 105 454 45 q 386 -14 286 -14 q 239 -14 193 0 q 146 15 113 35 l 92 0 l 53 0 l 46 237 l 85 237 q 98 193 114 157 q 130 122 157 91 q 183 62 217 45 q 250 28 295 28 q 329 28 354 37 q 379 46 395 62 q 411 78 418 100 q 426 122 426 150 q 426 191 402 227 q 379 263 333 282 q 301 294 260 310 q 219 325 189 339 q 130 365 98 408 q 65 451 65 520 q 65 559 82 593 q 98 627 127 654 q 156 680 194 694 q 233 708 275 708 q 323 708 361 694 q 398 679 430 660 l 450 693 l 489 693 l 493 463 l 453 463 q 442 502 429 539 q 416 575 394 604 q 373 632 343 649 q 312 666 269 666 q 222 666 189 636 q 157 606 157 563 q 157 519 178 489 q 199 459 239 440 q 274 423 309 411 q 343 398 375 384 q 405 372 432 355 q 459 339 479 318 z"},"}":{"x_min":0,"x_max":430,"ha":430,"o":"m 395 262 q 361 260 332 253 q 303 247 284 233 q 264 219 254 196 q 244 172 244 137 q 244 110 247 76 q 251 42 251 13 q 251 -42 237 -75 q 222 -109 194 -129 q 167 -148 125 -155 q 84 -163 33 -163 l 33 -124 q 53 -123 77 -119 q 102 -116 119 -105 q 138 -94 148 -73 q 159 -51 159 -17 l 159 97 q 159 149 171 183 q 184 216 207 237 q 229 257 260 268 q 292 279 327 286 l 327 301 q 290 308 259 320 q 229 331 207 351 q 183 372 171 405 q 159 439 159 490 l 159 604 q 159 641 148 662 q 137 683 119 693 q 104 701 78 705 q 52 709 33 710 l 33 750 q 83 750 125 743 q 166 735 194 715 q 222 695 237 660 q 251 625 251 575 q 251 545 247 512 q 244 478 244 450 q 244 417 253 394 q 263 371 284 355 q 302 343 331 335 q 361 328 395 325 z"},"Z":{"x_min":0,"x_max":602,"ha":602,"o":"m 593 216 l 570 0 l 13 0 l 13 17 l 449 654 l 290 654 q 262 654 243 653 q 224 652 208 649 q 176 643 136 596 q 96 549 75 497 l 41 497 l 62 693 l 581 693 l 581 676 l 145 39 l 310 39 q 351 39 398 44 q 445 50 459 64 q 491 95 518 139 q 545 183 559 216 z"},"x":{"x_min":0,"x_max":505,"ha":505,"o":"m 499 0 l 278 0 l 278 32 q 300 35 316 37 q 331 40 331 50 q 331 54 326 63 q 321 73 316 81 q 304 100 283 132 q 262 164 231 208 q 206 176 184 146 q 163 116 139 83 q 136 78 132 70 q 128 63 128 59 q 128 48 142 41 q 156 34 184 31 l 184 0 l 6 0 l 6 30 q 39 40 59 54 q 80 68 97 88 q 112 108 139 142 q 166 176 209 235 q 184 271 148 322 q 112 374 89 408 q 76 426 60 438 q 43 449 14 449 l 14 481 l 223 481 l 223 449 q 208 449 192 447 q 177 445 177 438 q 177 434 180 429 q 183 423 188 417 q 198 400 221 366 q 244 331 270 292 q 287 316 310 347 q 333 378 352 407 q 354 410 355 415 q 357 420 357 425 q 357 436 341 442 q 324 448 309 450 l 309 481 l 486 481 l 486 451 q 449 441 428 428 q 407 415 392 397 q 376 377 354 348 q 332 318 292 266 q 336 203 364 163 q 392 123 420 81 q 434 59 451 47 q 469 34 499 32 z"},")":{"x_min":0,"x_max":375,"ha":375,"o":"m 318 291 q 318 92 242 -26 q 166 -144 33 -160 l 33 -120 q 128 -103 176 1 q 224 104 224 290 q 224 485 175 588 q 126 690 33 708 l 33 748 q 166 730 242 612 q 318 494 318 291 z"},"&":{"x_min":0,"x_max":710,"ha":710,"o":"m 710 404 q 681 402 652 393 q 623 384 607 364 q 597 353 586 330 q 576 307 561 275 q 546 244 531 214 q 516 184 492 153 q 512 130 540 102 q 568 75 588 62 q 608 51 644 43 q 680 36 703 35 l 703 0 l 501 0 l 429 83 q 413 65 392 47 q 371 28 348 14 q 323 0 297 -9 q 271 -17 237 -17 q 201 -17 165 -7 q 129 4 100 27 q 72 49 54 84 q 37 120 37 168 q 37 229 69 278 q 101 327 188 382 q 148 435 126 473 q 104 511 104 558 q 104 592 118 620 q 131 648 156 669 q 178 688 210 699 q 243 709 276 709 q 315 709 344 697 q 374 685 393 665 q 410 646 419 622 q 428 597 428 573 q 428 514 391 472 q 355 430 291 396 q 337 334 381 283 q 425 232 465 183 q 498 235 516 281 q 534 327 534 362 q 534 378 511 387 q 489 396 449 404 l 449 439 l 710 439 z m 365 563 q 365 613 343 639 q 321 666 280 666 q 257 666 242 657 q 227 647 216 633 q 207 620 202 604 q 198 588 198 576 q 198 542 215 508 q 233 474 270 425 q 320 453 343 486 q 365 519 365 563 z m 403 111 q 357 169 301 238 q 244 306 209 354 q 170 326 154 289 q 137 252 137 205 q 137 139 175 95 q 213 51 276 51 q 312 51 346 67 q 381 82 403 111 z"},"_":{"x_min":0,"x_max":643,"ha":643,"o":"m 646 -138 l -2 -138 l -2 -88 l 646 -88 z"},"v":{"x_min":0,"x_max":497,"ha":497,"o":"m 511 452 q 489 448 469 436 q 449 424 435 394 q 406 328 375 257 q 345 186 312 108 q 302 85 291 55 q 280 24 271 -4 l 232 -4 q 186 110 147 205 q 108 299 66 398 q 56 421 34 433 q 13 446 -9 449 l -9 481 l 213 481 l 213 447 q 199 447 177 441 q 155 436 155 426 q 155 424 157 418 q 160 412 162 404 q 182 354 219 265 q 255 176 278 121 q 296 163 323 226 q 349 288 380 365 q 385 378 389 390 q 394 401 394 413 q 394 421 385 428 q 377 435 366 439 q 355 444 344 447 q 333 449 327 450 l 327 481 l 511 481 z"},"O":{"x_min":0,"x_max":744,"ha":744,"o":"m 607 611 q 653 563 679 495 q 705 428 705 346 q 705 263 679 196 q 652 128 605 81 q 560 34 500 9 q 440 -17 372 -17 q 300 -17 239 10 q 177 38 133 86 q 89 133 64 201 q 39 269 39 346 q 39 430 65 496 q 92 562 138 611 q 184 659 245 684 q 306 709 372 709 q 441 709 502 684 q 563 658 607 611 z m 535 120 q 562 164 574 220 q 587 276 587 346 q 587 417 573 477 q 559 536 532 578 q 505 620 465 643 q 424 666 372 666 q 313 666 272 639 q 231 612 206 567 q 181 524 169 467 q 157 409 157 346 q 157 275 170 219 q 183 162 210 118 q 236 75 276 51 q 316 27 372 27 q 424 27 466 51 q 508 76 535 120 z"},"(":{"x_min":0,"x_max":375,"ha":375,"o":"m 342 -160 q 209 -144 133 -26 q 57 92 57 291 q 57 494 133 612 q 209 730 342 748 l 342 708 q 249 690 200 588 q 151 485 151 290 q 151 104 199 1 q 247 -103 342 -120 z"},"C":{"x_min":0,"x_max":642,"ha":642,"o":"m 353 -16 q 291 -16 234 8 q 177 33 133 79 q 90 125 64 191 q 38 257 38 340 q 38 423 63 490 q 89 558 134 607 q 178 655 239 682 q 299 708 368 708 q 419 708 461 695 q 502 683 540 660 l 560 693 l 599 693 l 604 446 l 563 446 q 556 482 540 524 q 524 566 503 596 q 480 629 448 648 q 416 667 374 667 q 327 667 286 646 q 245 625 215 583 q 187 544 171 483 q 155 422 155 347 q 155 280 172 225 q 188 169 220 127 q 251 86 294 62 q 336 39 389 39 q 429 39 462 52 q 495 64 520 84 q 544 106 562 133 q 581 161 593 193 l 629 175 q 587 72 518 28 q 449 -16 353 -16 z"},"W":{"x_min":0,"x_max":976,"ha":976,"o":"m 990 658 q 978 658 962 653 q 946 647 932 639 q 915 628 905 615 q 894 601 886 576 q 852 463 806 312 q 760 162 707 -9 l 662 -9 l 487 524 l 305 -9 l 262 -9 q 213 162 162 346 q 110 530 92 592 q 88 607 79 619 q 71 631 56 641 q 44 649 28 653 q 11 657 -2 658 l -2 693 l 281 693 l 281 658 q 244 656 218 651 q 191 646 191 633 q 191 628 193 620 q 194 612 195 607 q 207 564 235 465 q 264 366 320 169 l 493 683 l 541 683 l 715 158 q 750 279 775 369 q 801 460 817 524 q 829 570 832 587 q 835 604 835 615 q 835 632 812 643 q 790 654 739 658 l 739 693 l 990 693 z"},"A":{"x_min":0,"x_max":671,"ha":671,"o":"m 694 0 l 405 0 l 405 35 q 443 37 469 44 q 494 52 494 62 q 494 67 493 73 q 492 80 490 84 l 432 240 l 189 240 q 176 206 167 180 q 159 155 152 133 q 146 112 143 99 q 141 86 141 78 q 141 58 171 47 q 202 37 241 35 l 241 0 l -20 0 l -20 35 q -7 36 12 40 q 31 45 43 53 q 62 66 73 80 q 84 95 94 120 q 146 250 209 413 q 272 576 322 703 l 361 703 l 592 105 q 599 86 608 74 q 618 62 634 51 q 646 44 664 40 q 682 35 694 35 z m 415 283 l 310 552 l 207 283 z"},"f":{"x_min":0,"x_max":325,"ha":325,"o":"m 394 698 q 394 676 382 661 q 370 646 346 646 q 331 646 320 652 q 308 658 298 669 q 289 680 280 693 q 272 707 266 715 q 233 714 216 670 q 198 625 198 529 l 198 479 l 322 479 l 322 433 l 198 433 l 198 87 q 198 70 204 59 q 211 48 225 43 q 237 39 256 36 q 276 33 290 32 l 290 0 l 36 0 l 36 32 q 47 33 59 34 q 71 35 80 38 q 94 42 100 53 q 107 64 107 82 l 107 433 l 12 433 l 12 479 l 107 479 l 107 510 q 107 620 164 688 q 221 756 306 756 q 350 756 372 739 q 394 722 394 698 z"},"Q":{"x_min":0,"x_max":744,"ha":744,"o":"m 607 611 q 653 563 679 495 q 705 428 705 346 q 705 280 688 225 q 671 169 640 125 q 610 83 569 52 q 528 21 477 2 q 478 -51 516 -94 q 553 -137 597 -137 q 637 -137 658 -134 q 679 -131 692 -129 l 692 -167 q 670 -174 637 -181 q 604 -188 546 -188 q 513 -188 482 -178 q 451 -169 425 -148 q 400 -127 383 -95 q 366 -62 361 -16 q 292 -13 232 14 q 172 42 130 90 q 87 138 63 203 q 39 269 39 346 q 39 430 65 496 q 92 562 138 611 q 184 659 245 684 q 306 709 372 709 q 441 709 502 684 q 563 658 607 611 z m 535 120 q 562 164 574 220 q 587 276 587 346 q 587 417 573 477 q 559 536 532 578 q 505 620 465 643 q 424 666 372 666 q 313 666 272 639 q 231 612 206 567 q 181 524 169 467 q 157 409 157 346 q 157 275 170 219 q 183 162 210 118 q 236 75 276 51 q 316 27 372 27 q 424 27 466 51 q 508 76 535 120 z"},"w":{"x_min":0,"x_max":737,"ha":737,"o":"m 752 450 q 732 448 708 433 q 685 418 674 388 q 649 316 628 252 q 606 188 579 107 q 570 82 561 53 q 552 23 545 -3 l 503 -3 l 374 351 l 243 -3 l 203 -3 q 167 105 132 212 q 97 318 70 397 q 62 420 40 434 q 18 447 -2 449 l -2 481 l 212 481 l 212 447 q 196 447 177 442 q 159 437 159 426 q 159 424 160 417 q 162 411 165 404 q 180 353 200 289 q 220 226 251 125 l 374 472 l 421 472 l 546 130 q 567 195 588 257 q 609 318 625 372 q 628 384 631 395 q 634 405 634 416 q 634 424 626 431 q 619 438 607 442 q 598 446 586 448 q 575 450 569 450 l 569 481 l 752 481 z"},"-":{"x_min":0,"x_max":374,"ha":374,"o":"m 333 227 l 42 227 l 42 304 l 333 304 z"},"E":{"x_min":0,"x_max":653,"ha":653,"o":"m 630 204 l 617 0 l 42 0 l 42 35 q 57 36 81 39 q 105 42 113 45 q 128 53 135 64 q 141 76 141 94 l 141 592 q 141 608 135 621 q 130 633 113 641 q 100 647 77 652 q 55 657 42 658 l 42 693 l 578 693 l 578 526 l 542 526 q 532 563 499 605 q 467 646 438 650 q 422 652 401 653 q 380 654 354 654 l 245 654 l 245 379 l 323 379 q 360 379 378 386 q 395 393 408 410 q 419 424 427 448 q 434 471 437 492 l 473 492 l 473 221 l 437 221 q 435 245 426 271 q 417 297 408 309 q 393 328 374 333 q 354 339 323 339 l 245 339 l 245 131 q 245 100 249 82 q 253 64 266 55 q 279 45 301 43 q 323 40 363 40 q 379 40 406 40 q 432 40 450 42 q 469 44 489 49 q 508 54 517 63 q 539 86 564 134 q 588 182 595 204 z"},"s":{"x_min":0,"x_max":432,"ha":432,"o":"m 353 236 q 373 218 384 195 q 395 172 395 139 q 395 72 344 30 q 294 -13 215 -13 q 173 -13 137 2 q 102 18 87 30 l 77 -1 l 41 -1 l 36 166 l 69 166 q 73 147 86 122 q 99 96 117 76 q 136 54 162 40 q 189 25 222 25 q 269 25 294 46 q 320 67 320 107 q 320 127 312 142 q 304 157 288 168 q 272 180 249 189 q 225 198 196 207 q 173 213 145 225 q 117 237 97 253 q 76 271 62 295 q 48 320 48 354 q 48 413 92 454 q 136 495 210 495 q 238 495 268 488 q 297 480 316 470 l 327 496 l 362 496 l 370 341 l 336 341 q 326 393 292 425 q 258 458 209 458 q 169 458 146 438 q 123 417 123 389 q 123 367 131 353 q 138 338 153 328 q 168 318 190 309 q 212 301 245 290 q 277 280 306 266 q 334 252 353 236 z"},">":{"x_min":0,"x_max":643,"ha":643,"o":"m 549 246 l 97 11 l 97 78 l 473 273 l 97 469 l 97 536 l 549 301 z"},"l":{"x_min":0,"x_max":286,"ha":286,"o":"m 261 0 l 26 0 l 26 32 q 37 33 50 34 q 62 36 71 38 q 84 42 91 53 q 98 64 98 82 l 98 640 q 98 657 91 673 q 83 688 71 697 q 62 703 39 708 q 15 712 1 713 l 1 745 l 182 756 l 189 749 l 189 88 q 189 71 195 60 q 202 49 216 43 q 227 38 237 36 q 248 33 261 32 z"},"8":{"x_min":0,"x_max":596,"ha":596,"o":"m 545 184 q 545 102 475 42 q 404 -17 289 -17 q 181 -17 116 38 q 51 92 51 177 q 51 240 89 282 q 127 325 203 354 q 141 389 110 430 q 79 472 79 524 q 79 604 147 657 q 214 711 309 711 q 403 711 461 660 q 520 609 520 533 q 520 483 487 439 q 455 395 393 367 q 474 332 510 290 q 545 248 545 184 z m 427 538 q 427 598 392 635 q 356 672 301 672 q 246 672 211 636 q 176 601 176 547 q 176 496 216 460 q 256 425 358 384 q 395 408 411 446 q 427 485 427 538 z m 448 161 q 448 191 435 215 q 421 238 396 257 q 373 275 330 296 q 287 316 237 337 q 190 312 168 272 q 146 233 146 183 q 146 111 189 67 q 231 22 301 22 q 369 22 408 62 q 448 101 448 161 z"},"\\":{"x_min":0,"x_max":469,"ha":469,"o":"m 445 -207 l 381 -207 l 44 744 l 108 744 z"},"e":{"x_min":0,"x_max":483,"ha":483,"o":"m 463 113 q 433 56 382 21 q 331 -13 265 -13 q 207 -13 163 8 q 120 28 91 63 q 63 99 49 146 q 35 192 35 245 q 35 292 50 337 q 65 382 94 418 q 122 453 163 474 q 204 495 255 495 q 308 495 346 479 q 383 462 407 433 q 429 406 440 369 q 451 332 451 288 l 451 256 l 132 256 q 132 208 141 170 q 150 131 170 102 q 189 74 220 57 q 250 41 293 41 q 336 41 368 61 q 399 82 429 134 z m 355 297 q 355 324 350 355 q 346 387 335 408 q 324 430 305 444 q 285 458 254 458 q 203 458 169 416 q 135 373 132 297 z"},"b":{"x_min":0,"x_max":560,"ha":560,"o":"m 524 241 q 524 133 456 59 q 387 -15 297 -15 q 257 -15 219 -2 q 181 10 147 30 l 111 -26 l 81 -19 q 83 17 84 68 q 85 119 85 166 l 85 643 q 85 659 77 676 q 70 692 58 700 q 49 706 27 709 q 5 712 -8 713 l -8 745 l 169 756 l 176 749 l 176 431 l 179 430 q 209 462 245 479 q 281 495 316 495 q 405 495 464 424 q 524 354 524 241 z m 422 238 q 422 274 414 312 q 406 349 390 377 q 373 405 346 423 q 319 440 282 440 q 248 440 222 427 q 196 414 176 391 l 176 110 q 179 99 187 83 q 196 67 210 53 q 225 40 244 31 q 262 22 289 22 q 349 22 385 80 q 422 138 422 238 z"},"%":{"x_min":0,"x_max":817,"ha":817,"o":"m 385 529 q 385 443 338 396 q 292 348 219 348 q 146 348 99 396 q 53 443 53 529 q 53 610 98 660 q 144 709 219 709 q 294 709 339 660 q 385 610 385 529 z m 302 529 q 302 592 281 633 q 260 673 219 673 q 177 673 156 633 q 136 592 136 529 q 136 464 157 424 q 178 384 219 384 q 260 384 281 424 q 302 464 302 529 z m 764 165 q 764 79 718 32 q 671 -16 598 -16 q 525 -16 479 32 q 433 79 433 165 q 433 246 478 296 q 523 346 599 346 q 673 346 719 296 q 764 246 764 165 z m 682 165 q 682 229 661 269 q 640 310 599 310 q 557 310 536 269 q 515 229 515 165 q 515 100 536 60 q 557 21 598 21 q 639 21 660 60 q 682 100 682 165 z m 732 695 l 156 0 l 89 0 l 663 695 z"},"m":{"x_min":0,"x_max":881,"ha":881,"o":"m 860 0 l 625 0 l 625 32 q 636 33 648 34 q 659 35 668 38 q 682 42 688 53 q 695 64 695 82 l 695 331 q 695 381 672 409 q 648 437 614 437 q 590 437 569 429 q 548 422 530 409 q 516 398 507 385 q 497 373 492 365 l 492 87 q 492 70 498 59 q 504 48 518 42 q 529 38 538 35 q 547 33 562 32 l 562 0 l 332 0 l 332 32 q 343 33 354 34 q 364 35 373 38 q 387 42 393 53 q 400 64 400 82 l 400 331 q 400 381 377 409 q 354 437 319 437 q 295 437 274 429 q 253 421 235 408 q 221 397 211 384 q 202 371 197 364 l 197 88 q 197 71 204 60 q 210 49 224 43 q 234 38 245 36 q 256 33 269 32 l 269 0 l 35 0 l 35 32 q 46 33 58 34 q 70 35 79 38 q 93 42 99 53 q 106 64 106 82 l 106 381 q 106 397 99 409 q 92 422 79 431 q 70 437 56 440 q 42 444 28 445 l 28 477 l 189 487 l 196 480 l 196 412 l 199 412 q 211 424 229 440 q 247 457 262 467 q 279 479 304 487 q 330 495 360 495 q 407 495 440 469 q 474 444 489 409 q 506 426 520 439 q 533 452 555 466 q 574 479 599 487 q 624 495 655 495 q 716 495 751 455 q 787 415 787 332 l 787 87 q 787 70 793 59 q 799 48 813 42 q 824 38 835 35 q 846 33 860 32 z"},"#":{"x_min":0,"x_max":643,"ha":643,"o":"m 568 364 l 446 364 l 411 241 l 539 241 l 539 181 l 394 181 l 342 0 l 288 0 l 340 181 l 234 181 l 182 0 l 127 0 l 180 181 l 75 181 l 75 241 l 197 241 l 232 364 l 104 364 l 104 424 l 249 424 l 300 601 l 354 601 l 303 424 l 409 424 l 460 601 l 515 601 l 463 424 l 568 424 z m 394 365 l 286 365 l 250 240 l 357 240 z"},",":{"x_min":0,"x_max":270,"ha":270,"o":"m 209 17 q 209 -18 194 -49 q 178 -81 157 -103 q 136 -126 113 -145 q 89 -163 70 -173 l 47 -140 q 71 -125 89 -111 q 108 -96 120 -82 q 134 -64 145 -44 q 155 -24 158 1 l 133 1 q 100 1 82 18 q 63 35 63 64 q 63 84 80 104 q 97 123 125 123 q 167 123 188 95 q 209 67 209 17 z"},"n":{"x_min":0,"x_max":591,"ha":591,"o":"m 567 0 l 331 0 l 331 32 q 342 33 356 34 q 369 35 378 38 q 392 42 398 53 q 405 64 405 82 l 405 330 q 405 381 381 409 q 356 437 322 437 q 296 437 274 428 q 253 420 236 409 q 220 397 211 385 q 201 372 197 364 l 197 87 q 197 70 204 60 q 210 49 224 43 q 234 38 246 36 q 258 33 271 32 l 271 0 l 35 0 l 35 32 q 46 33 58 34 q 70 35 79 38 q 93 42 99 53 q 106 64 106 82 l 106 379 q 106 396 99 410 q 92 424 79 433 q 70 438 57 441 q 44 444 30 445 l 30 477 l 190 487 l 197 480 l 197 413 l 199 413 q 211 424 229 441 q 246 457 262 467 q 280 479 305 487 q 330 495 361 495 q 430 495 464 451 q 497 408 497 336 l 497 86 q 497 69 503 58 q 509 48 523 42 q 535 37 543 35 q 552 33 567 32 z"},"h":{"x_min":0,"x_max":582,"ha":582,"o":"m 558 0 l 322 0 l 322 32 q 333 33 347 34 q 360 35 369 38 q 383 42 389 53 q 396 64 396 82 l 396 330 q 396 381 372 409 q 348 437 313 437 q 288 437 266 428 q 244 420 227 409 q 210 396 202 384 q 193 372 188 364 l 188 87 q 188 70 195 60 q 201 49 215 43 q 226 38 237 36 q 249 33 262 32 l 262 0 l 26 0 l 26 32 q 37 33 49 34 q 62 36 70 38 q 83 42 90 53 q 97 64 97 82 l 97 643 q 97 659 90 676 q 82 692 70 701 q 61 707 39 710 q 17 712 3 713 l 3 745 l 181 756 l 188 749 l 188 413 l 190 413 q 206 429 219 441 q 232 454 254 467 q 272 479 298 487 q 323 495 354 495 q 418 495 453 454 q 488 413 488 336 l 488 86 q 488 69 494 58 q 500 48 514 42 q 525 38 534 35 q 543 33 558 32 z"},"z":{"x_min":0,"x_max":444,"ha":444,"o":"m 417 0 l 27 0 l 27 26 l 299 442 l 232 442 q 189 442 166 440 q 142 439 122 431 q 108 425 96 400 q 84 375 75 333 l 45 333 l 45 481 l 414 481 l 414 461 l 137 40 q 154 39 175 39 q 196 39 221 39 q 240 39 261 39 q 283 40 316 42 q 335 42 345 55 q 355 67 361 83 q 366 97 374 122 q 381 146 387 170 l 417 170 z"},"B":{"x_min":0,"x_max":654,"ha":654,"o":"m 539 323 q 569 302 589 269 q 609 236 609 188 q 609 140 588 104 q 567 69 534 46 q 501 23 460 12 q 418 0 375 0 l 46 0 l 46 35 q 58 36 81 39 q 103 42 113 46 q 128 53 134 65 q 141 76 141 94 l 141 592 q 141 609 135 622 q 129 634 113 642 q 98 649 80 653 q 62 657 50 658 l 50 693 l 370 693 q 407 693 441 686 q 475 678 505 660 q 534 643 553 613 q 571 584 571 542 q 571 505 558 477 q 545 448 521 428 q 499 408 469 395 q 440 381 407 374 l 407 370 q 437 366 473 355 q 510 343 539 323 z m 421 427 q 439 448 447 473 q 454 498 454 532 q 454 589 422 622 q 391 654 324 654 q 308 654 284 654 q 261 653 245 652 l 245 386 l 307 386 q 347 386 375 396 q 404 407 421 427 z m 489 206 q 489 268 448 307 q 406 347 330 347 q 298 347 277 346 q 255 345 245 345 l 245 101 q 245 70 270 54 q 294 39 339 39 q 412 39 450 81 q 489 124 489 206 z"},"K":{"x_min":0,"x_max":694,"ha":694,"o":"m 720 0 l 526 0 q 470 87 401 173 q 333 258 257 339 l 245 339 l 245 98 q 245 82 251 69 q 257 56 273 48 q 281 45 302 40 q 323 35 337 35 l 337 0 l 50 0 l 50 35 q 61 36 83 38 q 104 40 113 43 q 127 50 134 62 q 141 75 141 92 l 141 592 q 141 609 135 621 q 129 633 113 641 q 100 647 82 652 q 63 657 50 658 l 50 693 l 337 693 l 337 658 q 324 658 303 654 q 283 650 273 646 q 256 641 250 627 q 245 613 245 597 l 245 358 l 254 358 q 298 395 341 435 q 383 476 418 516 q 457 560 474 587 q 492 613 492 634 q 492 641 483 646 q 474 650 462 653 q 449 656 438 657 q 427 658 420 658 l 420 693 l 680 693 l 680 658 q 679 658 674 658 q 669 657 663 657 q 656 656 649 655 q 642 653 631 651 q 614 647 596 639 q 578 630 566 618 q 516 561 461 500 q 406 438 353 388 q 427 304 475 244 q 524 183 579 114 q 600 88 621 72 q 642 56 657 48 q 669 42 688 39 q 708 35 720 35 z"},"R":{"x_min":0,"x_max":702,"ha":702,"o":"m 723 0 l 536 0 q 474 97 424 168 q 374 239 315 314 l 245 314 l 245 94 q 245 77 250 64 q 255 51 273 44 q 282 41 304 38 q 326 35 341 35 l 341 0 l 48 0 l 48 35 q 60 36 82 38 q 104 41 113 44 q 127 51 134 63 q 141 75 141 94 l 141 595 q 141 612 136 625 q 131 639 113 646 q 101 650 81 654 q 62 657 48 658 l 48 693 l 368 693 q 412 693 450 684 q 489 675 520 655 q 550 635 568 604 q 586 572 586 528 q 586 488 574 457 q 562 426 538 404 q 516 383 485 367 q 455 352 417 341 q 469 273 503 227 q 537 181 586 114 q 607 85 625 71 q 642 57 659 48 q 672 42 691 39 q 710 35 723 35 z m 466 517 q 466 580 430 616 q 394 653 328 653 l 245 653 l 245 356 l 309 356 q 376 356 421 399 q 466 442 466 517 z"},"T":{"x_min":0,"x_max":619,"ha":619,"o":"m 611 505 l 577 505 q 573 522 561 547 q 550 571 536 592 q 521 615 504 632 q 486 648 470 651 q 455 653 432 654 q 409 655 390 655 l 361 655 l 361 101 q 361 84 368 71 q 375 58 392 50 q 401 47 429 41 q 457 35 473 35 l 473 0 l 146 0 l 146 35 q 159 36 187 39 q 215 42 226 46 q 242 52 250 64 q 257 76 257 96 l 257 655 l 229 655 q 214 655 191 654 q 169 653 148 651 q 132 649 115 632 q 98 614 83 592 q 68 570 57 546 q 46 521 42 505 l 7 505 l 7 693 l 611 693 z"},"P":{"x_min":0,"x_max":610,"ha":610,"o":"m 578 522 q 578 468 557 426 q 536 384 498 357 q 461 330 417 317 q 372 304 322 304 l 245 304 l 245 94 q 245 77 250 64 q 256 51 273 44 q 282 41 304 38 q 327 35 345 35 l 345 0 l 48 0 l 48 35 q 60 36 82 38 q 104 41 113 44 q 127 51 134 63 q 141 75 141 94 l 141 594 q 141 611 136 625 q 131 639 113 646 q 94 652 76 655 q 58 657 44 658 l 44 693 l 361 693 q 458 693 518 646 q 578 600 578 522 z m 430 404 q 446 427 452 452 q 457 478 457 498 q 457 525 450 554 q 444 583 428 604 q 411 627 383 640 q 355 653 313 653 l 245 653 l 245 347 l 294 347 q 347 347 380 363 q 413 379 430 404 z"},"|":{"x_min":0,"x_max":375,"ha":375,"o":"m 219 -207 l 157 -207 l 157 744 l 219 744 z"},"t":{"x_min":0,"x_max":345,"ha":345,"o":"m 333 21 q 301 8 272 -1 q 244 -10 203 -10 q 143 -10 118 20 q 93 51 93 106 l 93 433 l 6 433 l 6 479 l 95 479 l 95 629 l 184 629 l 184 479 l 322 479 l 322 433 l 185 433 l 185 164 q 185 133 187 113 q 189 93 198 78 q 206 63 221 56 q 237 49 263 49 q 275 49 299 51 q 323 53 333 57 z"},"M":{"x_min":0,"x_max":927,"ha":927,"o":"m 882 0 l 576 0 l 576 35 q 592 35 618 38 q 645 41 654 46 q 669 56 677 68 q 684 80 684 98 l 684 602 l 676 602 l 440 11 l 416 11 l 190 614 l 184 614 l 184 200 q 184 140 192 109 q 199 78 215 64 q 226 54 259 44 q 293 35 303 35 l 303 0 l 23 0 l 23 35 q 45 37 70 42 q 94 47 107 58 q 124 72 130 100 q 137 128 137 195 l 137 549 q 137 580 129 600 q 122 619 108 631 q 93 645 71 651 q 49 657 28 658 l 28 693 l 264 693 l 462 173 l 632 608 q 641 632 648 658 q 654 684 655 693 l 881 693 l 881 658 q 867 658 846 654 q 825 650 815 646 q 798 641 792 627 q 787 613 787 597 l 787 98 q 787 81 792 69 q 798 57 815 48 q 824 43 846 39 q 869 35 882 35 z"},"g":{"x_min":0,"x_max":509,"ha":509,"o":"m 448 50 q 467 31 479 8 q 490 -16 490 -50 q 490 -85 475 -115 q 459 -146 429 -168 q 396 -191 351 -204 q 305 -217 238 -217 q 129 -217 75 -185 q 21 -153 21 -91 q 21 -42 60 -13 q 99 16 159 19 l 159 25 q 145 30 129 36 q 113 43 102 52 q 89 62 82 76 q 74 90 74 110 q 74 136 92 158 q 110 180 147 195 l 147 203 q 101 225 75 259 q 49 293 49 339 q 49 407 100 451 q 151 495 230 495 q 252 495 274 491 q 296 486 318 479 l 486 479 l 486 433 l 373 433 l 373 430 q 391 409 400 383 q 409 358 409 333 q 409 270 357 226 q 306 182 237 182 l 178 182 q 167 178 155 168 q 143 158 143 140 q 143 122 153 113 q 163 103 178 100 q 192 96 211 95 q 229 94 250 93 q 271 93 308 90 q 346 88 361 87 q 384 86 406 77 q 429 67 448 50 z m 316 335 q 316 393 293 427 q 270 460 228 460 q 205 460 188 451 q 172 441 162 424 q 152 408 148 385 q 144 362 144 338 q 144 284 167 250 q 191 216 229 216 q 271 216 293 250 q 316 284 316 335 z m 410 -68 q 410 -41 397 -23 q 384 -6 358 0 q 345 2 302 5 q 260 7 204 7 q 151 -3 129 -27 q 106 -51 106 -89 q 106 -106 114 -122 q 121 -138 139 -151 q 156 -164 185 -172 q 214 -180 255 -180 q 327 -180 368 -152 q 410 -125 410 -68 z"},"j":{"x_min":0,"x_max":292,"ha":292,"o":"m 210 29 q 210 -24 195 -72 q 179 -119 153 -149 q 125 -182 91 -199 q 56 -217 14 -217 q -30 -217 -52 -199 q -74 -182 -74 -159 q -74 -138 -62 -122 q -50 -106 -28 -106 q -13 -106 -1 -112 q 11 -119 20 -129 q 27 -138 35 -151 q 43 -164 51 -176 q 88 -176 104 -131 q 120 -86 120 13 l 120 375 q 120 391 112 406 q 104 420 92 429 q 84 434 55 439 q 25 445 10 446 l 10 477 l 204 487 l 210 480 z m 218 678 q 218 650 199 629 q 181 608 154 608 q 129 608 111 628 q 93 648 93 673 q 93 700 111 720 q 129 740 154 740 q 182 740 200 721 q 218 703 218 678 z"},"i":{"x_min":0,"x_max":293,"ha":293,"o":"m 269 0 l 36 0 l 36 32 q 47 33 59 34 q 71 35 80 38 q 94 42 100 53 q 107 64 107 82 l 107 379 q 107 395 100 408 q 93 421 80 430 q 71 436 53 440 q 36 444 21 445 l 21 477 l 191 487 l 198 480 l 198 88 q 198 71 204 60 q 211 48 225 43 q 236 39 246 36 q 256 33 269 32 z m 208 677 q 208 649 189 629 q 171 608 144 608 q 119 608 101 628 q 83 647 83 673 q 83 700 101 720 q 119 740 144 740 q 172 740 190 721 q 208 702 208 677 z"},"y":{"x_min":0,"x_max":492,"ha":492,"o":"m -1 -157 q -1 -133 12 -117 q 25 -102 45 -102 q 61 -102 72 -108 q 83 -114 92 -123 q 100 -130 108 -143 q 116 -156 121 -164 q 146 -151 179 -95 q 213 -40 229 2 q 182 118 145 209 q 107 301 66 398 q 57 421 35 433 q 13 446 -9 449 l -9 481 l 210 481 l 210 447 q 196 447 175 441 q 155 436 155 428 q 155 425 157 418 q 159 412 162 404 q 181 356 219 265 q 257 174 278 119 q 300 171 323 227 q 347 283 376 359 q 380 369 386 385 q 393 401 393 413 q 393 426 370 437 q 348 448 328 450 l 328 481 l 507 481 l 507 451 q 492 449 468 434 q 444 420 433 394 q 375 259 329 148 q 284 37 261 -15 q 230 -83 206 -122 q 182 -160 159 -182 q 136 -203 118 -210 q 100 -217 80 -217 q 42 -217 20 -199 q -1 -181 -1 -157 z"},"@":{"x_min":0,"x_max":929,"ha":929,"o":"m 747 -58 q 698 -101 631 -127 q 564 -153 481 -153 q 408 -153 336 -129 q 265 -105 208 -57 q 151 -9 117 63 q 82 135 82 233 q 82 316 113 395 q 145 474 203 535 q 259 595 342 632 q 424 669 522 669 q 606 669 668 642 q 730 615 770 570 q 810 526 829 469 q 849 412 849 350 q 849 231 784 149 q 718 66 618 66 q 577 66 548 87 q 519 108 516 146 l 512 146 q 489 111 459 90 q 429 68 398 68 q 378 68 357 75 q 336 82 320 97 q 304 113 295 139 q 285 165 285 203 q 285 238 302 282 q 318 327 346 367 q 374 407 418 437 q 462 467 513 467 q 541 467 562 451 q 583 436 588 406 l 591 406 l 612 461 l 685 461 l 592 198 q 588 186 585 170 q 583 154 583 145 q 583 120 595 109 q 608 97 628 97 q 704 97 754 168 q 805 239 805 355 q 805 413 787 462 q 769 511 732 549 q 696 586 642 607 q 588 629 518 629 q 452 629 389 603 q 326 577 274 527 q 224 478 192 405 q 161 333 161 241 q 161 152 186 85 q 210 18 254 -27 q 298 -71 357 -93 q 416 -115 485 -115 q 562 -115 623 -94 q 684 -73 732 -33 z m 577 362 q 570 402 555 420 q 540 438 511 438 q 479 438 453 413 q 427 388 409 353 q 390 317 380 274 q 369 231 369 195 q 369 154 379 132 q 389 109 412 109 q 445 109 472 132 q 498 155 521 197 z"},".":{"x_min":0,"x_max":270,"ha":270,"o":"m 203 56 q 203 29 183 10 q 163 -10 136 -10 q 108 -10 89 10 q 69 29 69 56 q 69 83 89 103 q 108 123 136 123 q 163 123 183 103 q 203 83 203 56 z"},"p":{"x_min":0,"x_max":571,"ha":571,"o":"m 475 424 q 504 390 520 345 q 536 300 536 242 q 536 185 517 137 q 498 90 466 57 q 434 23 394 5 q 354 -13 309 -13 q 265 -13 237 -3 q 209 7 192 20 l 188 20 l 188 -125 q 188 -142 195 -154 q 202 -166 216 -171 q 228 -175 249 -179 q 271 -184 285 -184 l 285 -217 l 16 -217 l 16 -184 q 31 -183 45 -182 q 60 -180 71 -177 q 85 -172 91 -160 q 97 -147 97 -131 l 97 381 q 97 396 90 410 q 83 423 71 432 q 62 438 46 441 q 31 444 16 445 l 16 477 l 180 487 l 187 481 l 187 427 l 191 426 q 216 456 254 475 q 292 495 329 495 q 374 495 411 476 q 448 457 475 424 z m 396 78 q 415 108 424 148 q 434 188 434 238 q 434 274 426 312 q 418 349 401 377 q 385 405 358 423 q 331 440 293 440 q 257 440 232 425 q 207 409 188 387 l 188 102 q 192 89 202 75 q 212 61 225 50 q 240 38 257 31 q 275 23 300 23 q 328 23 353 37 q 378 52 396 78 z"},"X":{"x_min":0,"x_max":710,"ha":710,"o":"m 711 0 l 387 0 l 387 35 q 427 36 452 42 q 477 49 477 62 q 477 70 465 93 q 454 116 437 144 q 417 175 390 218 q 363 260 337 298 q 294 242 239 162 q 185 82 185 68 q 185 52 199 44 q 214 37 265 35 l 265 0 l 6 0 l 6 35 q 19 36 39 38 q 59 41 71 47 q 97 61 112 77 q 127 93 143 114 q 174 157 223 221 q 272 286 310 338 q 281 380 237 444 q 193 507 144 580 q 123 611 111 624 q 99 636 79 646 q 67 651 46 654 q 25 657 13 658 l 13 693 l 334 693 l 334 658 q 306 657 275 651 q 245 645 245 632 q 245 623 257 600 q 269 577 286 550 q 303 523 324 490 q 345 457 375 413 q 430 488 470 548 q 510 608 510 626 q 510 642 492 649 q 474 656 430 658 l 430 693 l 688 693 l 688 658 q 676 658 656 655 q 637 651 624 646 q 598 633 586 619 q 573 605 552 578 q 513 528 480 484 q 447 439 401 376 q 440 320 488 250 q 536 179 580 114 q 595 92 615 73 q 634 53 646 45 q 658 39 678 37 q 698 35 711 35 z"},"*":{"x_min":0,"x_max":472,"ha":472,"o":"m 431 537 q 431 519 420 510 q 410 502 394 502 q 383 502 343 512 q 302 523 251 529 q 273 499 292 478 q 311 458 324 444 q 337 430 344 419 q 352 409 352 396 q 352 383 340 374 q 328 364 315 364 q 306 364 298 369 q 291 374 285 383 q 277 397 270 429 q 262 460 236 521 q 213 462 204 428 q 194 395 188 383 q 181 374 175 369 q 168 364 158 364 q 144 364 133 373 q 121 382 121 396 q 121 408 128 418 q 135 429 149 444 q 161 457 181 479 q 202 501 222 529 q 174 524 133 513 q 91 502 79 502 q 62 502 52 510 q 42 518 42 537 q 42 553 52 562 q 62 571 79 571 q 93 571 130 561 q 167 551 222 545 q 203 571 182 594 q 161 618 149 630 q 135 645 128 655 q 121 666 121 678 q 121 691 133 701 q 145 710 158 710 q 167 710 174 706 q 182 701 188 691 q 194 679 206 638 q 217 598 236 554 q 258 604 268 641 q 278 678 285 691 q 291 700 298 705 q 306 710 315 710 q 329 710 340 701 q 352 692 352 678 q 352 658 324 631 q 297 604 251 545 q 304 551 343 561 q 381 571 394 571 q 410 571 420 562 q 431 554 431 537 z"},"Y":{"x_min":0,"x_max":615,"ha":615,"o":"m 642 658 q 633 658 615 652 q 597 646 589 640 q 570 628 563 622 q 557 615 537 588 q 499 535 467 479 q 435 424 386 339 q 368 308 362 289 q 356 270 356 234 l 356 102 q 356 84 364 71 q 371 58 388 50 q 398 46 424 41 q 451 35 467 35 l 467 0 l 143 0 l 143 35 q 156 36 184 38 q 211 41 222 45 q 239 53 246 65 q 252 78 252 97 l 252 265 q 252 273 243 294 q 233 314 220 340 q 191 396 155 462 q 120 528 93 575 q 77 603 65 617 q 52 631 36 642 q 24 649 8 653 q -8 657 -21 658 l -21 693 l 274 693 l 274 658 q 224 657 204 651 q 183 646 183 635 q 183 632 186 625 q 189 617 194 606 q 201 593 209 577 q 218 561 226 545 q 249 502 273 459 q 297 416 335 346 q 412 470 452 539 q 493 608 493 622 q 493 633 484 640 q 476 646 462 650 q 448 654 432 656 q 415 657 401 658 l 401 693 l 642 693 z"},"c":{"x_min":0,"x_max":454,"ha":454,"o":"m 258 -13 q 153 -13 94 57 q 35 126 35 243 q 35 293 51 338 q 67 382 97 418 q 126 453 169 474 q 213 495 264 495 q 335 495 379 461 q 424 427 424 369 q 424 344 412 325 q 400 307 374 307 q 345 307 329 321 q 313 336 313 354 q 313 376 319 399 q 325 422 326 433 q 317 448 300 453 q 282 458 262 458 q 239 458 218 448 q 196 438 176 412 q 158 387 147 346 q 136 304 136 247 q 136 156 176 98 q 216 41 282 41 q 329 41 361 64 q 393 87 420 133 l 452 112 q 419 55 367 21 q 314 -13 258 -13 z"},"!":{"x_min":0,"x_max":331,"ha":331,"o":"m 230 645 q 230 621 214 481 q 198 341 186 211 l 148 211 q 137 341 121 481 q 105 621 105 645 q 105 673 123 692 q 141 711 168 711 q 195 711 213 692 q 230 673 230 645 z m 235 56 q 235 29 215 10 q 195 -10 168 -10 q 141 -10 121 10 q 101 29 101 56 q 101 83 121 103 q 141 123 168 123 q 195 123 215 103 q 235 83 235 56 z"},"/":{"x_min":0,"x_max":469,"ha":469,"o":"m 425 744 l 87 -207 l 24 -207 l 360 744 z"},"[":{"x_min":0,"x_max":375,"ha":375,"o":"m 342 -151 l 82 -151 l 82 742 l 342 742 l 342 697 l 169 697 l 169 -106 l 342 -106 z"},"6":{"x_min":0,"x_max":566,"ha":566,"o":"m 525 225 q 525 174 507 130 q 488 85 458 54 q 422 19 379 1 q 335 -16 289 -16 q 234 -16 190 4 q 146 24 116 61 q 84 98 67 152 q 50 206 50 272 q 50 447 154 566 q 258 686 432 710 l 441 666 l 397 658 q 291 624 233 552 q 175 479 158 376 q 200 413 241 428 q 282 443 328 443 q 409 443 467 381 q 525 318 525 225 z m 419 212 q 419 291 383 339 q 346 387 285 387 q 249 387 217 373 q 186 359 156 327 q 156 321 155 300 q 154 279 154 267 q 154 152 191 88 q 229 23 290 23 q 348 23 383 73 q 419 124 419 212 z"},"r":{"x_min":0,"x_max":410,"ha":410,"o":"m 404 419 q 404 395 392 375 q 379 356 354 356 q 327 356 312 370 q 298 384 298 401 q 298 412 300 421 q 301 430 303 438 q 280 438 249 420 q 218 401 197 367 l 197 87 q 197 70 203 59 q 210 48 224 43 q 236 38 256 36 q 275 33 289 32 l 289 0 l 35 0 l 35 32 q 46 33 58 34 q 70 35 79 38 q 93 42 99 53 q 106 64 106 82 l 106 379 q 106 395 99 409 q 92 424 79 433 q 70 438 57 441 q 44 444 30 445 l 30 477 l 190 487 l 197 480 l 197 413 l 199 413 q 229 452 267 473 q 304 493 334 493 q 365 493 385 473 q 404 453 404 419 z"},"2":{"x_min":0,"x_max":559,"ha":559,"o":"m 511 0 l 54 0 l 54 66 q 67 82 90 100 q 114 119 146 141 q 166 154 193 170 q 220 186 255 204 q 293 225 314 240 q 335 256 352 279 q 363 294 370 317 q 377 339 377 381 q 377 442 344 471 q 312 500 260 500 q 229 500 200 487 q 172 475 158 453 q 161 437 166 416 q 171 394 171 374 q 171 355 156 341 q 141 326 110 326 q 86 326 73 343 q 60 360 60 388 q 60 415 74 441 q 89 468 116 490 q 143 512 183 526 q 222 540 268 540 q 368 540 427 495 q 486 450 486 375 q 486 340 475 311 q 465 281 441 259 q 416 234 381 216 q 346 198 275 167 q 232 147 196 127 q 159 106 136 86 l 511 86 z"},"{":{"x_min":0,"x_max":430,"ha":430,"o":"m 397 -163 q 346 -163 305 -156 q 264 -148 236 -129 q 208 -109 194 -75 q 179 -42 179 13 q 179 42 183 76 q 187 110 187 137 q 187 172 176 196 q 166 219 146 233 q 126 247 98 253 q 69 260 35 262 l 35 325 q 69 328 99 335 q 128 342 146 355 q 167 371 177 394 q 187 417 187 450 q 187 478 183 512 q 179 545 179 575 q 179 625 194 660 q 208 695 236 715 q 264 735 306 743 q 347 750 397 750 l 397 710 q 378 709 352 705 q 326 701 311 693 q 293 683 282 662 q 271 641 271 604 l 271 490 q 271 439 259 405 q 247 372 223 351 q 201 331 171 320 q 141 308 104 301 l 104 286 q 139 279 170 268 q 201 257 223 237 q 246 216 259 183 q 271 149 271 97 l 271 -17 q 271 -51 282 -73 q 292 -94 311 -105 q 329 -116 353 -119 q 377 -123 397 -124 z"},"9":{"x_min":0,"x_max":566,"ha":566,"o":"m 516 252 q 516 167 489 92 q 462 17 412 -40 q 362 -95 291 -132 q 220 -169 132 -181 l 124 -137 l 167 -129 q 272 -96 332 -27 q 391 42 408 148 q 368 114 328 98 q 288 82 238 82 q 159 82 100 144 q 41 206 41 300 q 41 401 109 471 q 177 540 277 540 q 386 540 451 462 q 516 385 516 252 z m 412 258 q 412 372 375 437 q 337 501 276 501 q 218 501 183 451 q 147 401 147 313 q 147 234 183 187 q 220 139 281 139 q 319 139 351 153 q 382 167 410 197 q 410 199 410 205 q 411 211 411 222 q 411 229 412 238 q 412 248 412 258 z"}," ":{"x_min":0,"x_max":241,"ha":241,"o":""},"I":{"x_min":0,"x_max":390,"ha":390,"o":"m 351 0 l 39 0 l 39 35 q 52 36 77 38 q 102 40 112 43 q 128 50 135 61 q 143 72 143 91 l 143 593 q 143 610 137 622 q 132 633 112 641 q 97 647 75 652 q 53 657 39 658 l 39 693 l 351 693 l 351 658 q 335 658 314 655 q 293 651 278 646 q 259 641 253 627 q 247 614 247 598 l 247 97 q 247 81 254 68 q 261 56 278 48 q 288 44 311 40 q 334 35 351 35 z"},"H":{"x_min":0,"x_max":815,"ha":815,"o":"m 765 0 l 478 0 l 478 35 q 489 36 511 38 q 534 40 542 43 q 557 49 563 61 q 570 73 570 92 l 570 339 l 245 339 l 245 98 q 245 81 250 69 q 256 57 272 48 q 281 44 302 40 q 323 35 335 35 l 335 0 l 48 0 l 48 35 q 60 36 82 38 q 104 40 112 43 q 127 49 134 61 q 141 73 141 92 l 141 592 q 141 608 134 621 q 128 634 112 641 q 99 647 80 652 q 62 657 48 658 l 48 693 l 335 693 l 335 658 q 322 658 302 654 q 282 650 272 646 q 256 641 250 627 q 245 613 245 597 l 245 382 l 570 382 l 570 592 q 570 608 564 621 q 558 634 542 641 q 529 647 510 652 q 491 657 478 658 l 478 693 l 765 693 l 765 658 q 751 658 732 654 q 712 650 702 646 q 686 641 680 627 q 674 613 674 597 l 674 98 q 674 81 680 69 q 686 57 702 48 q 710 44 732 40 q 753 35 765 35 z"},"4":{"x_min":0,"x_max":565,"ha":565,"o":"m 529 44 l 430 44 l 430 -178 l 336 -178 l 336 44 l 24 44 l 24 119 l 366 537 l 430 537 l 430 108 l 529 108 z m 336 108 l 336 428 l 73 108 z"},"~":{"x_min":0,"x_max":643,"ha":643,"o":"m 580 349 q 573 331 557 303 q 541 276 521 257 q 498 233 471 219 q 444 205 413 205 q 378 205 349 216 q 319 226 295 238 q 270 251 246 261 q 222 271 197 271 q 165 271 143 249 q 122 227 102 186 l 63 201 q 70 219 86 246 q 103 272 122 292 q 141 313 171 329 q 200 344 230 344 q 266 344 295 334 q 324 323 349 311 q 375 298 397 288 q 419 278 446 278 q 480 278 502 302 q 523 326 542 364 z"},"D":{"x_min":0,"x_max":749,"ha":749,"o":"m 711 342 q 711 254 678 189 q 645 124 592 83 q 538 41 471 21 q 404 0 333 0 l 46 0 l 46 35 q 60 35 83 37 q 105 40 113 43 q 127 50 134 62 q 141 75 141 92 l 141 592 q 141 609 135 622 q 129 635 113 643 q 98 650 80 654 q 62 657 50 658 l 50 693 l 353 693 q 415 693 476 674 q 536 654 581 622 q 642 578 677 508 q 711 438 711 342 z m 592 343 q 592 413 573 469 q 555 525 519 567 q 485 607 436 630 q 387 653 327 653 q 307 653 282 653 q 257 652 245 651 l 245 119 q 245 74 271 57 q 296 40 350 40 q 412 40 458 62 q 505 84 534 123 q 564 164 578 218 q 592 272 592 343 z"},"^":{"x_min":0,"x_max":643,"ha":643,"o":"m 550 389 l 479 389 l 322 645 l 164 389 l 93 389 l 294 711 l 350 711 z"},"0":{"x_min":0,"x_max":614,"ha":614,"o":"m 501 456 q 533 418 548 368 q 563 317 563 262 q 563 196 544 143 q 525 91 492 56 q 458 21 411 2 q 364 -16 307 -16 q 244 -16 194 5 q 145 26 114 63 q 82 101 66 152 q 50 203 50 262 q 50 320 66 369 q 81 418 114 458 q 145 496 194 518 q 244 540 307 540 q 374 540 422 517 q 470 495 501 456 z m 456 262 q 456 378 416 442 q 376 506 308 506 q 238 506 198 442 q 158 378 158 262 q 158 152 197 85 q 235 18 307 18 q 378 18 417 85 q 456 152 456 262 z"},"F":{"x_min":0,"x_max":599,"ha":599,"o":"m 585 520 l 549 520 q 539 558 506 602 q 474 646 444 650 q 429 652 408 653 q 387 654 361 654 l 245 654 l 245 376 l 324 376 q 360 376 380 384 q 400 391 415 407 q 424 417 432 440 q 440 463 443 489 l 480 489 l 480 217 l 443 217 q 441 238 433 266 q 424 293 415 305 q 400 323 378 330 q 355 336 324 336 l 245 336 l 245 98 q 245 82 251 69 q 257 56 273 48 q 281 45 305 40 q 330 35 342 35 l 342 0 l 42 0 l 42 35 q 57 36 81 38 q 105 40 113 43 q 127 50 134 62 q 141 75 141 92 l 141 592 q 141 608 135 621 q 130 633 113 641 q 100 647 77 652 q 55 657 42 658 l 42 693 l 585 693 z"},"`":{"x_min":0,"x_max":500,"ha":500,"o":"m 361 558 l 342 542 q 292 582 252 612 q 213 642 194 658 q 175 673 168 683 q 160 693 160 713 q 160 727 171 739 q 183 751 200 751 q 219 751 233 742 q 247 733 262 708 q 279 681 301 647 q 324 612 361 558 z"},"k":{"x_min":0,"x_max":536,"ha":536,"o":"m 545 0 l 400 0 q 362 55 318 118 q 275 181 228 241 l 188 203 l 188 89 q 188 71 194 60 q 201 48 215 43 q 227 38 237 36 q 248 33 262 32 l 262 0 l 26 0 l 26 32 q 37 33 49 34 q 62 36 70 38 q 83 42 90 53 q 97 64 97 82 l 97 642 q 97 660 90 676 q 82 691 70 700 q 60 708 38 710 q 16 712 3 713 l 3 745 l 181 756 l 188 749 l 188 239 q 226 277 270 321 q 314 365 345 399 q 349 403 353 410 q 358 417 358 422 q 358 435 337 441 q 315 448 296 450 l 296 481 l 508 481 l 508 451 q 467 439 435 421 q 404 402 387 388 q 375 378 354 356 q 333 334 294 298 q 334 249 384 180 q 434 111 457 81 q 479 52 496 43 q 513 34 545 32 z"},"u":{"x_min":0,"x_max":575,"ha":575,"o":"m 551 9 l 395 -2 l 387 5 l 387 66 l 384 66 q 373 54 358 40 q 343 26 324 15 q 302 1 282 -5 q 261 -12 224 -12 q 160 -12 126 30 q 93 71 93 151 l 93 381 q 93 399 86 411 q 80 423 67 432 q 58 438 45 440 q 32 443 17 444 l 17 476 l 178 487 l 185 480 l 185 146 q 185 94 208 67 q 232 41 265 41 q 292 41 312 49 q 333 58 348 69 q 361 79 371 91 q 381 102 386 112 l 386 385 q 386 401 379 413 q 373 426 360 435 q 352 440 334 442 q 317 443 295 444 l 295 476 l 470 487 l 478 480 l 478 98 q 478 82 484 70 q 491 58 503 50 q 512 44 524 43 q 537 41 551 41 z"},"]":{"x_min":0,"x_max":375,"ha":375,"o":"m 293 -151 l 33 -151 l 33 -106 l 206 -106 l 206 697 l 33 697 l 33 742 l 293 742 z"},"U":{"x_min":0,"x_max":756,"ha":756,"o":"m 749 658 q 735 658 708 652 q 682 647 666 636 q 649 625 643 590 q 636 555 636 504 l 636 203 q 636 145 612 103 q 588 60 549 33 q 511 6 468 -5 q 425 -17 386 -17 q 324 -17 275 0 q 226 16 193 44 q 160 72 144 108 q 127 144 127 183 l 127 592 q 127 609 121 621 q 116 632 99 642 q 86 649 67 653 q 48 657 36 658 l 36 693 l 325 693 l 325 658 q 311 658 290 654 q 270 650 260 646 q 243 641 238 627 q 232 613 232 597 l 232 214 q 232 187 238 156 q 244 125 262 99 q 281 72 314 55 q 347 38 404 38 q 458 38 494 55 q 530 72 551 100 q 571 126 580 155 q 588 184 588 213 l 588 498 q 588 552 580 586 q 572 621 557 631 q 540 644 510 650 q 481 657 465 658 l 465 693 l 749 693 z"},"o":{"x_min":0,"x_max":539,"ha":539,"o":"m 504 246 q 504 195 488 146 q 472 97 442 62 q 409 23 364 4 q 320 -15 265 -15 q 219 -15 177 3 q 136 20 104 53 q 72 86 53 133 q 34 180 34 239 q 34 352 100 423 q 166 495 272 495 q 373 495 439 427 q 504 359 504 246 z m 403 245 q 403 281 396 322 q 389 363 374 391 q 358 421 333 440 q 308 458 271 458 q 233 458 207 439 q 180 421 164 389 q 148 359 142 321 q 135 283 135 247 q 135 200 143 160 q 150 121 167 89 q 184 58 209 40 q 234 22 271 22 q 332 22 368 82 q 403 141 403 245 z"},"N":{"x_min":0,"x_max":767,"ha":767,"o":"m 759 658 q 745 658 717 650 q 688 643 676 635 q 659 623 653 588 q 646 554 646 500 l 646 -7 l 604 -7 l 184 560 l 184 203 q 184 143 192 110 q 199 78 215 64 q 226 54 261 44 q 296 35 308 35 l 308 0 l 23 0 l 23 35 q 37 36 68 44 q 99 53 107 60 q 124 73 130 101 q 137 129 137 197 l 137 539 q 137 561 129 583 q 121 606 108 618 q 90 634 60 646 q 30 657 12 658 l 12 693 l 209 693 l 599 165 l 599 494 q 599 555 591 587 q 583 620 569 630 q 555 640 524 648 q 493 657 477 658 l 477 693 l 759 693 z"},"+":{"x_min":0,"x_max":643,"ha":643,"o":"m 573 243 l 353 243 l 353 22 l 291 22 l 291 243 l 70 243 l 70 304 l 291 304 l 291 524 l 353 524 l 353 304 l 573 304 z"},"G":{"x_min":0,"x_max":725,"ha":725,"o":"m 718 277 q 707 275 687 272 q 667 269 655 263 q 640 256 634 242 q 628 229 628 211 l 628 157 q 628 99 629 78 q 629 58 630 44 q 565 15 501 0 q 437 -16 375 -16 q 308 -16 247 9 q 185 34 139 80 q 93 126 65 192 q 38 259 38 341 q 38 420 64 488 q 90 555 138 605 q 185 654 249 681 q 313 708 386 708 q 445 708 488 694 q 532 680 565 660 l 585 693 l 624 693 l 628 451 l 588 451 q 578 491 563 530 q 548 568 524 599 q 500 630 466 648 q 431 667 383 667 q 331 667 290 645 q 249 624 219 582 q 189 542 173 481 q 157 420 157 346 q 157 280 173 221 q 188 163 219 121 q 249 77 294 52 q 340 27 397 27 q 440 27 476 41 q 511 54 526 68 q 530 94 530 120 q 530 146 530 164 l 530 202 q 530 222 525 238 q 519 254 501 261 q 485 269 458 272 q 430 276 415 277 l 415 312 l 718 312 z"},"q":{"x_min":0,"x_max":560,"ha":560,"o":"m 563 -217 l 303 -217 l 303 -184 q 318 -183 333 -182 q 348 -180 359 -177 q 375 -172 380 -160 q 386 -147 386 -131 l 386 47 l 383 48 q 375 39 361 28 q 347 16 331 9 q 312 -1 293 -7 q 275 -13 248 -13 q 204 -13 165 6 q 126 24 98 58 q 69 91 52 139 q 35 188 35 246 q 35 301 55 346 q 74 392 106 425 q 137 457 180 476 q 224 495 266 495 q 298 495 323 489 q 347 482 365 474 q 380 468 395 458 q 410 448 417 444 l 458 508 l 486 504 q 484 468 481 415 q 478 362 478 323 l 478 -123 q 478 -140 484 -152 q 490 -165 504 -171 q 516 -176 534 -179 q 552 -183 563 -184 z m 386 89 l 386 377 q 382 389 373 404 q 364 419 351 430 q 337 442 318 450 q 298 458 272 458 q 215 458 176 398 q 137 339 137 236 q 137 195 145 162 q 152 128 171 100 q 188 72 215 56 q 242 40 283 40 q 318 40 343 54 q 368 69 386 89 z"},"d":{"x_min":0,"x_max":574,"ha":574,"o":"m 562 9 l 395 -2 l 387 5 l 387 50 l 383 51 q 358 22 321 4 q 283 -14 244 -14 q 203 -14 164 5 q 126 23 98 56 q 69 90 52 137 q 35 185 35 242 q 35 294 53 341 q 71 388 103 423 q 133 456 176 475 q 219 495 264 495 q 298 495 330 486 q 363 478 386 464 l 386 632 q 386 652 379 669 q 373 686 360 695 q 347 704 323 708 q 300 712 273 714 l 273 745 l 470 756 l 478 749 l 478 99 q 478 82 484 70 q 491 58 503 50 q 513 44 530 42 q 548 41 562 41 z m 386 93 l 386 375 q 382 388 374 402 q 365 417 352 429 q 337 441 318 449 q 299 458 274 458 q 245 458 220 442 q 195 427 176 399 q 158 372 148 329 q 137 287 137 236 q 137 195 145 161 q 153 128 171 99 q 188 72 215 55 q 242 39 278 39 q 317 39 343 56 q 369 73 386 93 z"},"1":{"x_min":0,"x_max":430,"ha":430,"o":"m 395 0 l 66 0 l 66 35 q 81 36 112 39 q 143 42 154 45 q 169 50 177 61 q 186 72 186 94 l 186 437 l 64 437 l 64 478 l 91 478 q 144 478 185 498 q 227 517 245 540 l 286 540 q 284 508 283 465 q 281 423 281 389 l 281 100 q 281 83 289 69 q 296 56 311 49 q 323 44 352 40 q 381 35 395 35 z"},"5":{"x_min":0,"x_max":528,"ha":528,"o":"m 412 229 q 444 204 465 164 q 486 124 486 63 q 486 -42 415 -110 q 343 -178 232 -178 q 147 -178 88 -138 q 29 -97 29 -43 q 29 -19 41 0 q 53 19 79 19 q 108 19 123 3 q 139 -12 139 -30 q 139 -46 133 -69 q 128 -93 125 -104 q 129 -107 138 -113 q 146 -119 159 -125 q 171 -130 190 -134 q 208 -138 232 -138 q 264 -138 292 -125 q 319 -113 338 -88 q 359 -61 370 -26 q 380 9 380 63 q 380 132 342 177 q 304 222 241 222 q 202 222 168 208 q 134 193 107 159 l 75 171 l 116 524 l 466 524 l 466 437 l 156 437 l 130 230 q 152 246 188 261 q 224 276 267 276 q 303 276 341 265 q 379 254 412 229 z"}}}
